<?xml version="1.0" encoding="utf-8"?>
<!-- Generator: Adobe Illustrator 16.0.4, SVG Export Plug-In . SVG Version: 6.00 Build 0)  -->
<!DOCTYPE svg PUBLIC "-//W3C//DTD SVG 1.1//EN" "http://www.w3.org/Graphics/SVG/1.1/DTD/svg11.dtd">
<svg version="1.1" id="Layer_1" xmlns="http://www.w3.org/2000/svg" xmlns:xlink="http://www.w3.org/1999/xlink" x="0px" y="0px"
	 width="1000px" height="1000px" viewBox="0 0 1000 1000" enable-background="new 0 0 1000 1000" xml:space="preserve">
<g>
	<path fill="#00FF00" stroke="#000000" stroke-width="5" stroke-miterlimit="10" d="M364.423,431.516l1.225,5.717l-2.858,4.492
		l-4.492,2.042l-5.309,0.816h-5.717l-9.392-0.816l-6.126-0.409h-18.376l-25.319,1.634l-5.309-1.634l-2.45-3.267l-2.042-4.492
		l-12.659-34.303l-2.859-4.083l-3.675-0.817l-4.9-0.409l-24.502-1.633h-6.534l-30.628-0.817l-24.502-0.408h-6.126l-6.125,0.408
		H136.96l-5.309,0.817l-3.267,2.042l-2.45,4.9l-9.393,27.769l-2.45,6.534l-4.492,5.309l-6.125,2.45l-6.534-0.408l-23.686-1.225
		h-6.534l-25.319,1.633l-5.309,0.409l-4.901-2.45l-3.267-4.492l0.408-5.309l0.817-3.267l2.45-6.534l5.717-12.66l2.45-6.125
		l10.209-22.869l2.45-5.717l10.618-22.869l2.45-6.125l9.393-22.052l2.45-6.125l11.026-22.869l2.45-5.717l14.701-33.486
		l11.435-24.502l2.858-6.534l8.984-18.377l2.858-6.534l7.759-18.785l2.45-6.125l7.351-16.743l2.042-4.492l4.083-2.45l6.125-1.225
		l18.785-0.817h31.853l18.785,0.408l6.942,1.226l4.492,3.267l2.042,5.309l5.717,15.926l2.45,6.125l10.209,19.193l2.45,5.717
		l8.984,20.01l2.45,5.717l7.351,20.827l2.45,5.717l8.984,19.602l2.45,5.717l8.984,20.01l2.45,5.717l8.167,20.418l2.451,5.717
		l12.659,25.319l9.801,19.193l2.859,5.717l11.026,25.727L364.423,431.516z M228.027,316.355l-1.633-5.309l-8.984-27.769
		l-2.042-6.126l-8.167-24.094l-2.042-5.309l-4.084-2.859l-5.309-1.225l-4.492,1.225l-4.083,4.084l-11.026,27.769l-2.45,6.125
		l-10.618,27.361l-1.225,6.125l1.225,4.901l4.492,2.042l5.717,0.817h25.728l19.193,1.225l5.309-1.633l3.267-3.267L228.027,316.355z"
		/>
	<path fill="#00FF00" stroke="#000000" stroke-width="5" stroke-miterlimit="10" d="M635.581,196.294l0.409,6.534l-0.409,6.125
		l-0.408,4.492l-1.225,2.858l-2.45,2.042l-4.492,1.225h-8.576l-12.251-1.633l-6.534-0.409h-26.544l-46.554,1.634l-18.377-1.225
		h-8.984l-4.083,1.225l-1.634,2.858l-0.408,5.717l-0.817,36.345l0.409,4.492l0.408,2.45l2.042,1.634l4.9,1.225h10.618l13.884-1.225
		l6.535-0.409l24.502,0.817h31.036l6.125-0.408l15.519-1.225h9.801l4.492,0.816l2.45,2.042l1.634,3.267l0.816,4.9l0.408,3.267
		l0.408,6.125l-0.816,12.251v6.125l0.408,9.393l-0.408,6.125l-0.408,6.534l-0.817,4.9l-1.225,3.267l-2.042,1.633l-4.9,1.225h-9.801
		l-15.109-2.042l-6.534-0.408l-24.503,0.817h-6.533l-44.104-0.817l-6.126,0.408l-5.717,0.817l-4.083,1.225l-1.633,2.45v5.309
		l-0.409,23.277v6.534l-1.633,22.869v6.534l0.408,8.984l-0.408,6.534l-0.408,6.942l-0.409,4.901l-1.225,2.45l-2.45,1.225
		l-4.492,0.816l-6.942,0.817l-6.534,0.408l-15.11-0.408h-6.534l-16.743,1.225l-12.251-0.817l-4.492-0.816l-2.451-1.634l-0.816-2.858
		l-0.409-4.492l-1.225-21.644l-0.408-6.534l-0.408-21.644l0.408-6.534l1.633-21.644l0.409-6.534l-1.225-21.644v-6.534l-1.225-22.052
		v-6.534l0.816-21.644v-34.711l0.817-21.644v-34.712l0.817-21.644l0.408-4.9l0.817-2.858l2.45-1.226l4.083-0.816h8.984l15.518,1.225
		h6.534l24.094-1.225h6.534l23.686,1.225h6.534l24.094-1.225l6.534-0.408l24.094,1.225h6.533l24.095-1.225h6.534l10.209,0.408
		l6.534,0.408l6.941,0.817l4.492,0.408l2.45,1.225l1.634,2.45l0.408,4.492l0.408,3.675v6.125l-0.816,12.251v6.534L635.581,196.294z"
		/>
	<path fill="#00FF00" stroke="#000000" stroke-width="5" stroke-miterlimit="10" d="M935.324,286.544l-0.409,6.534l0.817,20.827
		v6.942l-0.817,13.885l-1.225,10.209l-1.226,6.125l-2.45,9.393l-2.041,5.717l-2.859,8.576l-2.858,6.125l-3.267,6.125l-3.676,6.125
		l-6.125,7.759l-4.084,5.309l-6.126,6.534l-4.492,4.492l-6.941,6.126l-4.901,3.675l-7.759,4.9l-5.309,3.267L861,439.275l-5.717,2.45
		l-9.393,2.858l-5.717,1.634l-9.393,1.633l-6.126,1.225l-10.209,0.817l-13.885,0.817l-6.942-0.409l-9.393-0.408l-20.827-2.859
		l-15.109-3.267l-14.293-4.492l-14.701-5.309l-7.76-4.083l-5.309-3.267l-7.351-5.717l-4.492-4.083l-6.125-6.942l-3.676-4.492
		l-4.9-7.759l-2.858-5.309l-4.084-8.576l-2.042-6.125l-4.083-13.068l-1.634-10.209l-1.226-6.534l-0.408-9.393l-0.408-6.942v-6.942
		l1.634-5.309l4.492-1.634l6.125-0.408h18.377l18.377,0.817l6.533-0.409l12.252-1.225l6.533-0.408l4.9,2.45l2.042,4.492l0.408,5.309
		l0.409,2.859l1.225,5.717l2.858,9.393l2.45,5.717l2.859,5.309l4.083,5.309l7.759,6.942l5.718,3.675l6.125,2.859l6.534,1.633
		l9.801,1.225l6.126-0.408l12.251-2.45l5.717-2.042l5.718-2.858l5.717-3.267l7.76-6.534l4.491-4.9l3.676-6.125l2.45-6.125
		l2.042-8.984l0.816-6.125l0.408-9.393v-6.125l0.409-24.502v-6.534l0.408-24.911v-6.534l0.408-24.502l0.408-5.717l-3.267-1.633
		l-18.785,1.225h-6.534l-18.377-1.225h-6.533l-13.068,1.225h-5.717l-4.9-2.042l-2.45-4.9v-2.45l-0.409-6.125l1.226-17.152v-6.534
		l-1.226-19.193l0.409-6.126l2.45-4.492l4.9-1.634h8.575l16.335,0.817h6.534l24.502-2.042l6.534-0.408l24.094,0.816h37.57
		l18.785-0.816h6.125l4.084,1.225l1.634,2.45l0.408,4.492l0.408,5.717l0.408,6.125l0.408,9.393l-0.408,6.534l-1.225,20.418v6.534
		l1.225,20.827l0.408,6.534l0.409,20.827l-0.409,6.534L935.324,286.544z"/>
	<path fill="#0000FF" stroke="#000000" stroke-width="5" stroke-miterlimit="10" d="M501.023,807.789l0.408,6.533l1.633,12.66
		l0.409,6.125l-0.409,3.268l-0.408,4.492l-2.042,3.268l-2.45,2.041l-4.492,0.816l-6.125,0.408h-6.534l-16.335-1.225l-6.942-0.408
		h-10.209l-7.351-0.408l-15.109-2.043l-2.859-0.816l-1.633-2.041l-0.409-4.084l-0.408-5.717l-0.408-6.127l0.816-13.883V772.26
		l-1.225-25.727V740l1.634-25.32v-31.852l-0.817-4.9l-2.45-1.635h-2.45l-2.859,3.676l-4.083,5.717l-17.151,19.602L365.853,735.1
		l-16.335,20.418l-3.675,3.268l-2.859,1.225h-3.267l-4.492-0.816l-4.9-1.227l-4.492-3.266l-20.418-24.502l-15.11-20.012l-4.083-4.9
		l-21.235-23.686l-5.309-5.309l-2.45,0.816l-0.816,4.492l-1.225,25.729v6.533l1.633,25.729v6.533l0.817,25.727v6.535l-0.409,25.318
		v6.125l0.409,12.252l-0.409,6.533l-0.408,6.943L256,840.867l-1.633,2.449l-2.859,0.818l-10.618,1.225l-6.534,0.408l-15.926-1.225
		l-6.534,0.408l-19.602,1.633h-9.393l-4.9-0.816l-2.45-2.451l-0.817-2.857l-0.817-4.084v-9.393l0.817-12.66v-62.889l-0.817-21.643
		v-6.535l0.408-21.643l-0.408-6.535l-1.225-22.051v-6.535l1.225-21.643l0.408-6.535l-1.633-21.643l0.408-6.535l1.634-21.643v-6.535
		l-1.634-15.109v-6.533l0.817-5.309l1.634-2.859l2.45-2.041l3.267-0.816l5.309-0.41l6.942,0.818l8.984,2.041h6.534l12.659-1.225
		l6.942-0.816l6.125-0.408l15.518,0.408h5.309l4.492,2.041l4.083,4.492l14.293,15.926l4.084,5.309l11.843,16.744l4.083,5.309
		l13.476,15.926l4.084,5.719l12.659,15.926l4.084,4.492l3.675,2.041h4.083l3.675-2.041l3.676-4.084l12.251-16.334l4.083-5.719
		l13.068-15.926l4.084-5.309l14.293-15.926l4.083-5.309l10.618-13.068l3.267-4.492l3.267-3.268l4.083-2.041l5.309,0.408
		l21.644,1.225l19.193,0.408h6.534l12.251-0.816l6.942,0.408l4.9,0.816l2.858,0.816l2.45,2.043l0.817,3.268l-0.408,4.9
		l-1.634,18.375l-0.408,6.535l0.816,21.643v6.535l-0.408,21.643v6.535l0.408,21.643v6.535l1.634,22.051v6.535l-1.634,21.643v6.535
		l1.226,21.643v6.533l-1.634,21.645v6.533L501.023,807.789z"/>
	<path fill="#0000FF" stroke="#000000" stroke-width="5" stroke-miterlimit="10" d="M825.27,807.789l-3.267,3.268l-7.352,6.533
		l-4.9,3.676l-7.759,5.717l-4.9,3.268l-8.167,4.492l-5.31,2.857l-9.393,4.492l-6.125,2.043l-6.942,2.041l-6.942,1.225l-10.209,2.043
		l-14.293,1.633l-7.351,0.408l-10.21,0.816h-21.235l-6.942-0.408l-6.941-0.816l-6.942-1.225l-6.942-1.635l-6.126-2.041l-18.377-4.9
		l-8.983-3.268l-5.31-2.449l-7.759-4.492l-4.9-3.676l-5.309-3.676l-5.718-3.674l-10.617-8.984l-4.9-4.9l-4.492-5.311l-4.492-6.125
		l-3.675-5.717l-3.268-5.717l-2.858-5.717l-4.084-8.576l-6.126-17.152l-2.857-8.168l-4.084-12.25l-0.816-6.125l-0.409-9.393
		l0.409-6.127l0.408-6.533v-6.943l0.816-13.883l0.408-6.535l1.225-6.125l1.635-8.984l1.633-6.125l2.042-6.127l2.042-5.717
		l2.858-8.168l2.858-5.717l2.859-6.125l3.266-6.125l3.676-6.127l3.676-5.717l4.084-5.309l4.492-5.717l4.899-5.309l4.901-4.492
		l5.309-4.492l4.9-4.084l13.067-8.984l5.31-3.268l5.717-3.266l12.251-5.717l6.942-2.451l6.534-2.041l13.885-3.268l6.942-1.225
		l6.941-0.816l12.66-0.818l8.984-0.816l6.125,0.408l8.984,0.408l15.109,2.043l5.718,1.225l9.393,1.633l14.293,4.084l5.717,2.451
		l8.984,5.309l5.717,3.268l10.618,7.35l12.659,8.984l4.492,3.268l2.45,2.041l2.858,2.859l0.817,3.266l-0.409,3.268l-2.45,3.268
		l-3.675,4.492l-4.492,4.492l-4.492,4.084l-4.492,3.674l-4.492,4.492l-6.942,8.168l-4.492,4.9l-2.041,2.041l-3.676,3.268
		l-2.858,1.225l-2.858,0.408l-2.859-0.816l-4.492-2.449l-7.759-5.717l-5.309-2.859l-8.984-4.084l-5.717-2.041l-8.984-2.451
		l-6.126-1.225l-10.209-0.816h-6.534l-8.983,0.816l-6.534,1.633l-8.984,2.859l-6.126,2.449l-5.309,2.043l-8.167,4.084l-5.718,4.082
		l-2.858,2.451l-4.9,5.309l-3.675,5.717l-2.859,5.309l-2.858,5.719l-2.45,6.125l-2.042,6.533l-1.225,6.943l-0.817,6.125
		l-0.816,12.252v6.533l0.408,10.209l0.408,6.125l2.042,9.393l2.042,6.127l2.858,6.941l3.268,6.125l6.125,8.984l4.492,4.9
		l7.759,6.535l5.31,3.676l8.167,4.082l6.126,2.451l8.984,2.449l6.533,1.227l9.801,0.408h9.393l5.718-1.225l3.267-0.818l6.126-2.041
		l10.209-3.676l6.534-2.857l6.125-2.859l5.31-2.859l7.759-4.9l5.309-4.084l4.084-2.857l2.45-0.816l3.675,0.816l4.492,2.857
		l4.492,4.084l1.634,2.451l4.084,4.492l6.533,8.166l4.084,4.902l11.026,12.658l3.675,4.9l2.042,2.043l2.042,3.674V807.789z"/>
</g>
</svg>
